<?xml version="1.0" encoding="UTF-8"?>
<svg id="Layer_2" data-name="Layer 2" xmlns="http://www.w3.org/2000/svg" viewBox="0 0 1000 1000">
  <defs>
    <style>
      .cls-1 {
        fill: #fff;
      }
    </style>
  </defs>
  <path class="cls-1" d="m411.37,175.02l-.32,161.83c-.02,9.1-11.12,13.53-17.4,6.94l-162.06-170.06c-.39-.45-.95-.71-1.54-.71h-57.04v294.7h54.63c1.11,0,2-.9,2-2l.32-163.53c.02-9.1,11.13-13.53,17.41-6.94l163.41,171.77c.39.45.95.71,1.54.71h55.69V173.02h-54.63c-1.11,0-2,.9-2,2Z"/>
  <path class="cls-1" d="m467.89,770.59c.08-26.01-25.3-48.64-56.75-48.64h-32.35c-5.52,0-10,4.48-10,10v35.7c0,5.5-4.45,9.97-9.95,10l-84.65.37c-27.64.12-50.12-22.39-49.96-50.03l.54-94.47c.16-27.21,22.55-49.48,49.76-49.48h92.08c24.59,0,44.52,25.98,44.52,50.57v1.66c0,5.56,4.51,10.07,10.07,10.07h46.79l-.11-114.27H173v295.19h294.89s.11-56.31,0-56.67Z"/>
  <path class="cls-1" d="m769.53,534.35l-.21,194.34c0,8.97-10.91,13.4-17.18,6.97l-72.08-74c-.79-.81-2.08-.81-2.88-.01l-70.91,71.38c-6.29,6.34-17.11,1.88-17.11-7.05v-191.62c0-1.14-.92-2.06-2.06-2.06h-55.91v294.65l72.23.09c.55,0,1.08-.22,1.47-.61l72.23-72.82c.82-.83,2.17-.82,2.97.03l69.24,72.76c.39.41.93.64,1.5.64l75.31-.09v-294.65h-54.56c-1.14,0-2.06.92-2.06,2.06Z"/>
  <path class="cls-1" d="m786.81,335s-11.81-7-11.94-14.5c.13-8.5,12.12-14.5,12.12-14.5,43.65-27.55,39.79-84.76,39.79-84.76l-.22-48.57h-295.75v295.46h295.75l-.26-47.89s4.15-57.58-39.49-85.24Zm-206.81-105.67c0-5.58,4.64-10.13,10.43-10.22,23.22-.34,137.22.13,173.44.29,6.12.03,11.07,4.82,11.07,10.72l.06,16.03c.1,24.73-22.35,44.83-50.08,44.83h-134.32c-5.86,0-10.6-4.57-10.6-10.22v-51.45Zm194.94,175.46c0,5.41-4.94,9.8-11.07,9.83-36.22.15-150.22.58-173.44.27-5.79-.08-10.43-4.25-10.43-9.37v-47.16c0-5.17,4.74-9.37,10.6-9.37h134.32c27.73,0,50.18,18.42,50.08,41.1l-.06,14.7Z"/>
</svg>